<?xml version="1.0" encoding="UTF-8"?>
<svg xmlns="http://www.w3.org/2000/svg" id="Layer_1" viewBox="0 0 549.65 100.4">
  <defs>
    <style>.cls-1{fill:#0A165D;}.cls-2{fill:#08f;}</style>
  </defs>
  <path class="cls-1" d="M170.81,55.46c-1.42,3.37-3.37,6.25-5.84,8.64-2.48,2.39-5.37,4.26-8.68,5.59-3.31,1.33-6.88,2-10.72,2s-7.44-.67-10.81-2c-3.37-1.34-6.29-3.2-8.76-5.59-2.48-2.39-4.42-5.27-5.84-8.64-1.42-3.37-2.13-7.08-2.13-11.14v-2c0-4.06,.71-7.78,2.13-11.14,1.42-3.37,3.38-6.25,5.88-8.64,2.5-2.39,5.42-4.26,8.76-5.59,3.34-1.33,6.93-2,10.77-2s7.34,.67,10.68,2c3.34,1.34,6.25,3.2,8.72,5.59,2.48,2.39,4.42,5.27,5.84,8.64,1.42,3.37,2.13,7.08,2.13,11.14v2c0,4.06-.71,7.78-2.13,11.14Zm-9.43-19.61c-.7-2.31-1.75-4.33-3.17-6.05-1.42-1.72-3.2-3.09-5.34-4.09-2.14-1-4.63-1.5-7.47-1.5s-5.3,.5-7.39,1.5c-2.09,1-3.84,2.37-5.26,4.09-1.42,1.72-2.48,3.74-3.17,6.05-.7,2.31-1.04,4.8-1.04,7.47s.38,5.16,1.13,7.47c.75,2.31,1.85,4.33,3.3,6.05,1.45,1.72,3.21,3.09,5.3,4.09,2.09,1,4.49,1.5,7.22,1.5s5.13-.5,7.22-1.5c2.09-1,3.85-2.37,5.3-4.09,1.45-1.72,2.55-3.74,3.3-6.05,.75-2.31,1.13-4.8,1.13-7.47s-.35-5.16-1.04-7.47Z"></path>
  <path class="cls-1" d="M253.77,28.96c2.42,1,4.52,2.42,6.3,4.26,1.78,1.84,3.17,4.05,4.17,6.63,1,2.59,1.5,5.47,1.5,8.64,0,.5-.01,1-.04,1.5-.03,.5-.04,.95-.04,1.33,0,.5-.03,.97-.08,1.42h-30.21c.45,3.17,1.56,5.76,3.34,7.76,1.78,2,4.28,3,7.51,3,2.34,0,4.24-.4,5.72-1.21,1.47-.81,2.63-2.13,3.46-3.96h9.85c-1.11,4.45-3.39,7.8-6.84,10.06-3.45,2.25-7.62,3.38-12.52,3.38-2.89,0-5.6-.53-8.14-1.59-2.53-1.06-4.74-2.52-6.63-4.38-1.89-1.86-3.38-4.12-4.46-6.76-1.09-2.64-1.63-5.55-1.63-8.72v-1.34c0-3.17,.54-6.08,1.63-8.72,1.09-2.64,2.57-4.91,4.46-6.8,1.89-1.89,4.09-3.37,6.59-4.42,2.5-1.06,5.2-1.59,8.09-1.59s5.55,.5,7.97,1.5Zm-.88,9.39c-1.5-1.75-3.75-2.63-6.76-2.63s-5.49,.83-7.14,2.5c-1.64,1.67-2.77,3.87-3.38,6.59h19.78c-.17-2.56-1-4.72-2.5-6.47Z"></path>
  <path class="cls-2" d="M354.8,16.19v9.1h-15.36v45.15h-10.52V25.29h-16.02v-9.1h41.9Z"></path>
  <path class="cls-2" d="M378.63,28.96c2.42,1,4.52,2.42,6.3,4.26,1.78,1.84,3.17,4.05,4.17,6.63,1,2.59,1.5,5.47,1.5,8.64,0,.5-.01,1-.04,1.5-.03,.5-.04,.95-.04,1.33,0,.5-.03,.97-.08,1.42h-30.21c.45,3.17,1.56,5.76,3.34,7.76,1.78,2,4.28,3,7.51,3,2.34,0,4.24-.4,5.72-1.21,1.47-.81,2.63-2.13,3.46-3.96h9.85c-1.11,4.45-3.39,7.8-6.84,10.06-3.45,2.25-7.62,3.38-12.52,3.38-2.89,0-5.61-.53-8.14-1.59-2.53-1.06-4.74-2.52-6.64-4.38-1.89-1.86-3.38-4.12-4.46-6.76-1.08-2.64-1.63-5.55-1.63-8.72v-1.34c0-3.17,.54-6.08,1.63-8.72,1.08-2.64,2.57-4.91,4.46-6.8,1.89-1.89,4.09-3.37,6.59-4.42,2.5-1.06,5.2-1.59,8.09-1.59s5.55,.5,7.97,1.5Zm-.88,9.39c-1.5-1.75-3.76-2.63-6.76-2.63s-5.49,.83-7.14,2.5c-1.64,1.67-2.77,3.87-3.38,6.59h19.78c-.17-2.56-1-4.72-2.5-6.47Z"></path>
  <path class="cls-2" d="M510.2,34.3c.95-1.61,2.18-2.92,3.71-3.92,1.53-1,3.24-1.74,5.13-2.21,1.89-.47,3.78-.71,5.68-.71,2.17,0,4.2,.24,6.09,.71,1.89,.47,3.55,1.18,4.97,2.13,1.42,.95,2.57,2.17,3.46,3.67,.89,1.5,1.39,3.31,1.5,5.42v.83h-9.18c-.11-1.95-.77-3.31-1.96-4.09-1.2-.78-2.82-1.17-4.88-1.17-4.01,0-6.01,1.45-6.01,4.34,0,1.06,.35,1.96,1.04,2.71,.69,.75,1.66,1.27,2.88,1.54s2.55,.54,3.96,.79c1.42,.25,2.85,.57,4.3,.96,1.45,.39,2.84,.89,4.17,1.5,1.33,.61,2.5,1.42,3.51,2.42,1,1,1.81,2.25,2.42,3.76,.61,1.5,.92,3.06,.92,4.67v.42c0,2.5-.52,4.62-1.54,6.34-1.03,1.72-2.34,3.13-3.92,4.21-1.59,1.09-3.37,1.86-5.34,2.34-1.98,.47-3.94,.71-5.88,.71-2.34,0-4.51-.26-6.51-.79-2-.53-3.76-1.36-5.26-2.5-1.5-1.14-2.7-2.57-3.59-4.3-.89-1.72-1.39-3.78-1.5-6.18v-.83h9.51c0,2.45,.61,4.21,1.84,5.3,1.22,1.09,3.12,1.63,5.67,1.63,2.17,0,3.83-.47,4.97-1.42,1.14-.95,1.71-2.14,1.71-3.59,0-1.11-.35-2.11-1.04-3-.69-.89-1.93-1.59-3.71-2.09-1-.28-2.17-.53-3.51-.75-1.33-.22-2.71-.5-4.13-.83-1.42-.33-2.81-.81-4.17-1.42-1.36-.61-2.55-1.42-3.55-2.42-.89-.89-1.64-2.03-2.25-3.42-.61-1.39-.92-2.86-.92-4.42v-.5c0-2.28,.47-4.23,1.42-5.84Z"></path>
  <path class="cls-1" d="M219.76,39.65c-1.11-2.61-2.59-4.83-4.42-6.64-1.84-1.81-3.94-3.2-6.3-4.17-2.36-.97-4.77-1.46-7.22-1.46-2.73,0-5.29,.42-7.68,1.25-2.15,.75-4.07,2.14-5.77,4.11v-4.03h-9.92v56.75h10.1v-18.44h.17c1.22,1.33,2.78,2.45,4.67,3.34,1.89,.89,4.48,1.34,7.76,1.34,3,0,5.74-.54,8.22-1.63,2.48-1.08,4.62-2.59,6.43-4.51,1.81-1.92,3.2-4.2,4.17-6.84,.97-2.64,1.46-5.52,1.46-8.64v-1.59c0-3.28-.56-6.23-1.67-8.85Zm-9.18,15.4c-.44,1.7-1.14,3.17-2.09,4.42-.95,1.25-2.14,2.24-3.59,2.96-1.45,.72-3.14,1.09-5.09,1.09s-3.63-.36-5.05-1.09c-1.42-.72-2.6-1.71-3.55-2.96-.95-1.25-1.66-2.73-2.13-4.42-.47-1.7-.71-3.52-.71-5.47s.24-3.75,.71-5.42c.47-1.67,1.18-3.13,2.13-4.38,.95-1.25,2.13-2.24,3.55-2.96,1.42-.72,3.1-1.09,5.05-1.09s3.64,.36,5.09,1.09c1.45,.72,2.64,1.71,3.59,2.96,.95,1.25,1.64,2.71,2.09,4.38,.45,1.67,.67,3.48,.67,5.42s-.22,3.77-.67,5.47Z"></path>
  <path class="cls-1" d="M307.44,36.35c-.75-1.81-1.79-3.37-3.13-4.67-1.33-1.31-2.94-2.34-4.8-3.09-1.86-.75-3.94-1.13-6.22-1.13-2.5,0-4.81,.49-6.93,1.46-1.94,.89-3.66,2.37-5.18,4.37v-4.58h-9.92v41.73h10.1v-25.04c0-3.17,.79-5.52,2.38-7.05,1.59-1.53,3.74-2.29,6.47-2.29,2.5,0,4.52,.74,6.05,2.21,1.53,1.47,2.3,3.83,2.3,7.05v25.12h10.01v-28.12c0-2.17-.38-4.16-1.13-5.97Z"></path>
  <path class="cls-2" d="M499.89,31.43c-2.59-2.64-6.11-3.96-10.56-3.96-1.06,0-2.2,.13-3.42,.38-1.23,.25-2.42,.65-3.59,1.21-1.17,.56-2.28,1.27-3.34,2.13-1.06,.86-1.98,1.91-2.75,3.13h-.17c-1.22-2.06-2.86-3.71-4.92-4.97-2.06-1.25-4.51-1.88-7.34-1.88-2.11,0-4.15,.47-6.09,1.42-1.77,.86-3.32,2.3-4.68,4.27v-4.43h-2.16s-7.76,0-7.76,0h0v41.73h10.1v-25.37c0-3.06,.68-5.33,2.04-6.8,1.36-1.47,3.27-2.21,5.72-2.21,2.17,0,3.96,.64,5.38,1.92,1.42,1.28,2.13,3.42,2.13,6.43v26.04h10.02v-25.7c0-3.17,.72-5.41,2.17-6.72,1.45-1.31,3.34-1.96,5.67-1.96s4.09,.64,5.42,1.92c1.34,1.28,2,3.51,2,6.68v25.79h10.02v-28.54c0-4.34-1.29-7.83-3.88-10.47Z"></path>
  <path class="cls-2" d="M426.48,28.71v.59h-.05v6.34c-2.95-4.62-7.22-6.93-12.82-6.93s-10.22,1.95-13.85,5.86c-3.64,3.9-5.45,8.93-5.45,15.07s1.83,11.19,5.49,15.14c3.66,3.95,8.24,5.93,13.74,5.93s9.8-2.48,12.89-7.44v6.85h9.97V28.71h-9.92Zm-3.29,29.8c-2.16,2.14-4.68,3.2-7.55,3.2s-5.39-1.08-7.55-3.24c-2.16-2.16-3.24-5.11-3.24-8.84s1.07-6.65,3.2-8.77c2.14-2.11,4.65-3.17,7.55-3.17s5.43,1.07,7.59,3.2c2.16,2.14,3.24,5.07,3.24,8.8s-1.08,6.67-3.24,8.8Z"></path>
  <path class="cls-1" d="M50.96,93.29c-1.92,0-3.76-.77-5.11-2.14-2.8-2.87-2.79-7.45,.02-10.3,2.79-2.81,7.32-2.83,10.13-.04,.02,.02,.04,.04,.06,.06,2.83,2.88,2.79,7.5-.09,10.33-1.34,1.32-3.14,2.07-5.02,2.09Z"></path>
  <path class="cls-1" d="M26.21,89.66c-.07,0-.14,0-.22-.03-.57-.02-1.08-.35-1.35-.85-.53-1.25,.99-3.45,1.64-4.39l.16-.23c2.34-3.51,7.08-9.42,10.76-13.72,3.78-4.42,7.03-7.82,8.99-9.86l.34-.36,.59-.62,.09-.1c.65-.78,1.38-1.48,2.18-2.11,.44-.33,.97-.51,1.52-.51,.56,0,1.11,.18,1.57,.51,.61,.52,1.19,1.07,1.73,1.67l.02,.02,1.11,1.13,.31,.32c1.97,2.06,5.27,5.51,9.02,9.9,3.68,4.3,8.43,10.22,10.76,13.72,2.17,3.18,2.08,3.98,1.77,4.57-.25,.51-.75,.85-1.32,.9-.05,0-.1,0-.14,0-.5,0-1.17-.38-3.46-2.44-1.61-1.48-4.01-3.79-6.32-6.02h0c-1.41-1.35-2.73-2.63-3.85-3.68-1.68-1.78-3.6-3.32-5.69-4.58-1.08-.51-2.24-.82-3.43-.9-.38-.05-.77-.07-1.16-.07h-.9c-.56,0-1.15,0-2.06,.06-1.19,.11-2.35,.41-3.43,.9-2.11,1.23-4.02,2.77-5.67,4.57-1.05,1-2.29,2.19-3.6,3.46h0c-2.41,2.34-4.92,4.75-6.58,6.25-2.24,2.08-2.91,2.48-3.39,2.48Z"></path>
  <path class="cls-1" d="M89.09,76.31c-1.43-.26-2.77-.87-3.9-1.78l-.23-.16c-3.33-2.24-9.24-6.81-14.05-10.88-4.51-3.8-7.99-7.03-10.53-9.43l-.57-.54-.14-.14c-.8-.66-1.53-1.41-2.18-2.22-.69-.93-.69-2.2,0-3.12,.52-.61,1.08-1.19,1.68-1.72l.02-.02,1.19-1.15,.3-.29c2.11-2,5.65-5.34,10.22-9.13,4.4-3.71,10.45-8.52,14.05-10.88,2.61-1.76,3.55-1.96,4.03-1.96,.23,0,.45,.06,.65,.17,.52,.25,.87,.76,.93,1.33,.06,.51-.08,1-2.49,3.64-1.07,1.12-2.53,2.61-4.08,4.19-2.11,2.14-4.27,4.36-5.93,6.11-1.81,1.69-3.39,3.62-4.68,5.73-.53,1.09-.85,2.26-.94,3.47-.07,.55-.09,1.1-.06,1.66v.43c0,.57,0,1.16,.06,2.08,.12,1.2,.43,2.37,.94,3.47,1.26,2.13,2.84,4.07,4.68,5.73,1.19,1.24,2.64,2.72,4.18,4.29,2.16,2.2,4.39,4.47,5.82,6.01,2.4,2.58,2.61,3.11,2.49,3.64-.15,.97-.65,1.47-1.47,1.47Z"></path>
  <path class="cls-1" d="M14.01,76.31c-.82,0-1.31-.5-1.45-1.48-.06-.51,.08-1,2.49-3.64,1.43-1.54,3.67-3.81,5.82-6.01h0c1.54-1.57,2.99-3.04,4.18-4.28,1.81-1.69,3.39-3.62,4.68-5.73,.53-1.09,.84-2.27,.93-3.47,.07-.55,.09-1.1,.07-1.66v-.42c0-.57,0-1.16-.06-2.08-.11-1.2-.42-2.38-.92-3.48-1.26-2.13-2.84-4.06-4.68-5.73-1.19-1.23-2.63-2.71-4.17-4.27h0c-2.16-2.2-4.4-4.48-5.84-6.02-2.41-2.58-2.62-3.11-2.5-3.65,.1-.56,.44-1.05,.94-1.33,.2-.11,.42-.17,.65-.17,.47,0,1.42,.2,4.03,1.96,3.31,2.23,9.23,6.79,14.05,10.88,3.9,3.29,7.09,6.25,9.2,8.2,.5,.47,.94,.87,1.33,1.23l.63,.59,.1,.09c.79,.66,1.52,1.4,2.16,2.2,.69,.93,.69,2.2,0,3.12-.53,.62-1.09,1.2-1.7,1.74l-.02,.02-1.17,1.13-.28,.26c-2.11,2-5.65,5.35-10.25,9.17-4.41,3.72-10.46,8.52-14.05,10.88l-.21,.14c-1.15,.92-2.51,1.54-3.96,1.8Z"></path>
  <path class="cls-1" d="M86.99,58.1c-1.92,0-3.76-.77-5.11-2.14-2.83-2.88-2.79-7.5,.08-10.33,1.34-1.32,3.14-2.07,5.02-2.1,1.92,0,3.76,.77,5.11,2.14,2.8,2.86,2.8,7.43,0,10.29-1.34,1.37-3.19,2.15-5.11,2.14Z"></path>
  <path class="cls-1" d="M14.93,58.1c-1.92,0-3.76-.77-5.1-2.14-2.83-2.88-2.79-7.5,.08-10.33,1.34-1.32,3.14-2.07,5.02-2.1,1.92,0,3.76,.77,5.11,2.14,2.83,2.88,2.79,7.5-.08,10.33-1.34,1.32-3.14,2.07-5.02,2.1h0Z"></path>
  <path class="cls-1" d="M50.93,43.53c-.55,0-1.08-.18-1.52-.51-.6-.51-1.17-1.05-1.7-1.64h0l-1.15-1.17-.31-.32c-1.97-2.06-5.27-5.51-9.02-9.9-3.68-4.31-8.44-10.22-10.76-13.74l-.14-.21c-.66-.96-2.21-3.21-1.66-4.45,.27-.49,.78-.81,1.34-.82,.05,0,.09,0,.14,0,.5,0,1.17,.38,3.46,2.44,1.61,1.49,4.02,3.8,6.35,6.04,1.41,1.34,2.72,2.61,3.83,3.67,1.68,1.76,3.58,3.3,5.66,4.56,1.08,.51,2.24,.82,3.43,.9,.38,.05,.77,.07,1.15,.07h.91c.56,0,1.15,0,2.06-.06,1.18-.11,2.34-.42,3.43-.92,2.11-1.23,4.02-2.77,5.67-4.57,1.06-1.01,2.31-2.22,3.64-3.5,2.41-2.32,4.89-4.73,6.56-6.22,2.24-2.06,2.92-2.45,3.39-2.45,.07,0,.15,0,.22,.03,.55,.09,1.03,.42,1.32,.9,.3,.59,.39,1.41-1.77,4.57-2.33,3.51-7.08,9.42-10.76,13.72-3.75,4.38-7,7.78-8.94,9.82l-.39,.41-.67,.7c-.66,.77-1.39,1.48-2.19,2.11-.46,.33-1.01,.52-1.58,.52Z"></path>
  <path class="cls-1" d="M50.96,21.68c-1.92,0-3.76-.77-5.11-2.14-2.83-2.88-2.79-7.5,.08-10.33,1.34-1.32,3.14-2.07,5.02-2.1,1.92,0,3.76,.77,5.11,2.14,1.36,1.37,2.11,3.22,2.11,5.15,.07,3.96-3.09,7.22-7.04,7.28-.05,0-.11,0-.16,0h0Z"></path>
</svg>
