<svg width="22" height="19" viewBox="0 0 22 19" fill="none" xmlns="http://www.w3.org/2000/svg">
<path d="M11.5943 17.7461C11.5187 17.8245 11.4282 17.8872 11.3281 17.9307C11.228 17.9742 11.1202 17.9977 11.0109 17.9998C10.9017 18.002 10.7931 17.9826 10.6913 17.943C10.5896 17.9033 10.4968 17.8442 10.4181 17.7688L10.3924 17.7461L2.47563 9.54423C1.72824 8.80158 1.23486 7.84439 1.06528 6.80803C0.895697 5.77168 1.0585 4.7086 1.53065 3.76916C1.88807 3.06024 2.40991 2.44575 3.05322 1.97626C3.69653 1.50676 4.44292 1.19568 5.23096 1.06862C6.01899 0.941564 6.82615 1.00216 7.586 1.24542C8.34584 1.48868 9.03665 1.90765 9.60158 2.46785L10.9919 3.84854L12.3966 2.46785C12.9609 1.90647 13.6516 1.48644 14.4117 1.24245C15.1718 0.998462 15.9794 0.937517 16.7678 1.06464C17.5563 1.19177 18.303 1.50333 18.9463 1.97358C19.5896 2.44383 20.111 3.0593 20.4675 3.76916C20.9409 4.7083 21.1045 5.77169 20.9348 6.80835C20.7652 7.84501 20.271 8.80227 19.5225 9.54423L11.5943 17.7461Z" stroke="#0088FF" stroke-linecap="round" stroke-linejoin="round"/>
</svg>
