<?xml version="1.0" encoding="UTF-8"?><svg id="Layer_1" xmlns="http://www.w3.org/2000/svg" viewBox="0 0 521.51 126.05"><defs><style>.cls-1{fill:#0a165d;}.cls-1,.cls-2{stroke-width:0px;}.cls-2{fill:#08f;}</style></defs><path class="cls-2" d="m491.04,87.23c0,16.86-12.42,29.88-31.65,29.88-11.24,0-20.11-2.96-27.21-9.17-1.48-1.48-6.21-6.51-1.77-11.83,2.96-3.85,8.58-4.14,11.83-1.18,5.03,4.73,12.72,5.92,16.86,5.92,9.76,0,15.38-5.62,15.38-13.61,0-21.89-45.55-21-45.55-52.36,0-15.38,10.94-27.51,31.06-27.51,9.47,0,17.75,2.07,24.55,7.69,1.77,1.48,5.32,6.21,1.48,11.54-2.66,3.85-7.69,4.44-11.24,2.07-4.73-3.25-11.54-5.03-15.68-5.03-9.76,0-13.61,4.73-13.61,11.24,0,18.34,45.55,17.45,45.55,52.36"/><path class="cls-2" d="m239.02,73.95v34.61c0,4.44-3.55,7.99-7.99,7.99s-7.99-3.55-7.99-7.99V17.46c0-4.44,3.55-7.99,7.99-7.99h30.76c17.75,0,32.24,14.49,32.24,32.24s-14.49,32.24-32.24,32.24h-22.78Zm0-48.22v32.24h22.19c8.87,0,16.27-7.4,16.27-16.27s-7.4-16.27-16.27-16.27h-22.19v.3Z"/><path class="cls-2" d="m103.54,104.1l-22.19-31.95c11.83-4.73,20.11-16.27,20.11-29.88,0-17.75-14.49-32.24-32.24-32.24h-30.76c-4.44,0-7.99,3.55-7.99,7.99v91.11c0,4.44,3.55,7.99,7.99,7.99s7.99-3.55,7.99-7.99v-34.61h15.97l27.21,39.05c1.48,2.37,4.14,3.55,6.8,3.55,1.77,0,3.25-.59,4.73-1.48,3.85-2.66,4.73-7.99,2.37-11.54M46.75,26.3h22.19c8.87,0,16.27,7.4,16.27,16.27s-7.4,16.27-16.27,16.27h-22.19V26.3Z"/><path class="cls-2" d="m148.44,27.78v29.23h29.23c4.47,0,8.05,3.58,8.05,8.05s-3.58,8.05-8.05,8.05h-29.23v29.23h39.07c4.47,0,8.05,3.58,8.05,8.05s-3.58,8.05-8.05,8.05h-47.13c-4.47,0-8.05-3.58-8.05-8.05V19.43c0-4.47,3.58-8.05,8.05-8.05h47.13c4.47,0,8.05,3.58,8.05,8.05s-3.58,8.05-8.05,8.05h-39.07v.3Z"/><path class="cls-1" d="m361.29,11.15c-29.65,0-53.77,24.12-53.77,53.77s24.12,53.77,53.77,53.77,53.77-24.12,53.77-53.77-24.12-53.77-53.77-53.77Zm16.07,84.07h-31.43c.14-3.07,3.28-15.52,7.57-31.62-4.2-2.19-7.33-6.28-8.1-11.31-1.28-8.39,4.48-16.22,12.87-17.5,8.39-1.28,16.22,4.48,17.5,12.87.96,6.31-2.06,12.31-7.2,15.44,3.62,11.16,9.04,28.59,8.79,32.12Z"/></svg>